<svg width="24" height="24" viewBox="0 0 24 24" fill="none" xmlns="http://www.w3.org/2000/svg">
<path d="M19.2499 16.45L17.7499 14.9C18.4166 14.7167 18.9582 14.3624 19.3749 13.837C19.7916 13.3124 19.9999 12.7 19.9999 12C19.9999 11.1667 19.7082 10.4584 19.1249 9.87505C18.5416 9.29172 17.8332 9.00005 16.9999 9.00005H12.9999V7.00005H16.9999C18.3832 7.00005 19.5626 7.48738 20.5379 8.46205C21.5126 9.43738 21.9999 10.6167 21.9999 12C21.9999 12.95 21.7542 13.825 21.2629 14.625C20.7709 15.425 20.0999 16.0334 19.2499 16.45ZM15.8499 13L13.8499 11H15.9999V13H15.8499ZM19.7999 22.6L1.3999 4.20005L2.7999 2.80005L21.1999 21.2001L19.7999 22.6ZM10.9999 17H6.9999C5.61657 17 4.43757 16.5124 3.4629 15.537C2.48757 14.5624 1.9999 13.3834 1.9999 12C1.9999 10.85 2.3499 9.82505 3.0499 8.92505C3.7499 8.02505 4.6499 7.43338 5.7499 7.15005L7.5999 9.00005H6.9999C6.16657 9.00005 5.45824 9.29172 4.8749 9.87505C4.29157 10.4584 3.9999 11.1667 3.9999 12C3.9999 12.8334 4.29157 13.5417 4.8749 14.125C5.45824 14.7084 6.16657 15 6.9999 15H10.9999V17ZM7.9999 13V11H9.6249L11.5999 13H7.9999Z" fill="#1C2129"/>
</svg>
