<svg width="24" height="24" viewBox="0 0 24 24" fill="none" xmlns="http://www.w3.org/2000/svg">
<path fill-rule="evenodd" clip-rule="evenodd" d="M11.8646 2.0009C6.40416 2.07337 2 6.52236 2 12C2 17.5228 6.47715 22 12 22C17.4776 22 21.9266 17.5959 21.9991 12.1354C20.9545 12.6875 19.7637 13 18.5 13C14.3579 13 11 9.64213 11 5.5C11 4.23627 11.3126 3.04554 11.8646 2.0009ZM22 12.0001L20.5893 10.5893C19.9451 10.854 19.2396 11 18.5 11C15.4625 11 13 8.53757 13 5.5C13 4.76041 13.146 4.05492 13.4107 3.41077L12 2C12 2 12 2 12 2L22 12C22 12 22 12 22 12.0001Z" fill="#1C2129"/>
</svg>
