<svg width="24" height="24" viewBox="0 0 24 24" fill="none" xmlns="http://www.w3.org/2000/svg">
<path fill-rule="evenodd" clip-rule="evenodd" d="M12 2.00001L11.9122 1.91223C11.8961 1.94167 11.8802 1.97123 11.8646 2.00091C6.40414 2.07339 2 6.52238 2 12C2 17.5229 6.47715 22 12 22C17.4776 22 21.9266 17.5959 21.9991 12.1354C22.0288 12.1198 22.0583 12.1039 22.0878 12.0878L22 12L19.649 9.64898L14.351 4.35105L12 2.00001ZM11.1409 4.0456C7.12662 4.47418 4 7.87197 4 12C4 16.4183 7.58172 20 12 20C16.128 20 19.5258 16.8734 19.9544 12.8591C19.4839 12.9516 18.9976 13 18.5 13C14.3579 13 11 9.64215 11 5.50001C11 5.0024 11.0485 4.51611 11.1409 4.0456Z" fill="#1C2129"/>
</svg>
