<svg width="24" height="24" viewBox="0 0 24 24" fill="none" xmlns="http://www.w3.org/2000/svg">
<path d="M4 12C4 11.45 4.19567 10.9793 4.587 10.588C4.979 10.196 5.45 10 6 10C6.55 10 7.021 10.196 7.413 10.588C7.80433 10.9793 8 11.45 8 12C8 12.55 7.80433 13.021 7.413 13.413C7.021 13.8043 6.55 14 6 14C5.45 14 4.979 13.8043 4.587 13.413C4.19567 13.021 4 12.55 4 12ZM10 12C10 11.45 10.196 10.9793 10.588 10.588C10.9793 10.196 11.45 10 12 10C12.55 10 13.021 10.196 13.413 10.588C13.8043 10.9793 14 11.45 14 12C14 12.55 13.8043 13.021 13.413 13.413C13.021 13.8043 12.55 14 12 14C11.45 14 10.9793 13.8043 10.588 13.413C10.196 13.021 10 12.55 10 12ZM16 12C16 11.45 16.196 10.9793 16.588 10.588C16.9793 10.196 17.45 10 18 10C18.55 10 19.0207 10.196 19.412 10.588C19.804 10.9793 20 11.45 20 12C20 12.55 19.804 13.021 19.412 13.413C19.0207 13.8043 18.55 14 18 14C17.45 14 16.9793 13.8043 16.588 13.413C16.196 13.021 16 12.55 16 12Z" fill="#1C2129"/>
</svg>
