<svg width="24" height="24" viewBox="0 0 24 24" fill="none" xmlns="http://www.w3.org/2000/svg">
<path fill-rule="evenodd" clip-rule="evenodd" d="M2.875 21.125C3.45833 21.7083 4.16667 22 5 22H19C19.8333 22 20.5417 21.7083 21.125 21.125C21.7083 20.5417 22 19.8333 22 19V5C22 4.16667 21.7083 3.45833 21.125 2.875C20.5417 2.29167 19.8333 2 19 2H5C4.16667 2 3.45833 2.29167 2.875 2.875C2.29167 3.45833 2 4.16667 2 5V19C2 19.8333 2.29167 20.5417 2.875 21.125ZM8 10C7.45 10 6.97933 9.804 6.588 9.412C6.196 9.02067 6 8.55 6 8C6 7.45 6.196 6.97933 6.588 6.588C6.97933 6.196 7.45 6 8 6C8.55 6 9.021 6.196 9.413 6.588C9.80433 6.97933 10 7.45 10 8C10 8.55 9.80433 9.02067 9.413 9.412C9.021 9.804 8.55 10 8 10ZM18 18H6L10 14L11.8 15.775L14 13L18 18Z" fill="#1C1B1F"/>
</svg>
