<svg width="24" height="24" viewBox="0 0 24 24" fill="none" xmlns="http://www.w3.org/2000/svg">
<path d="M3.24995 9.65002C3.13329 9.56669 3.06262 9.46236 3.03795 9.33702C3.01262 9.21236 3.04995 9.08336 3.14995 8.95002C4.18329 7.53336 5.47895 6.43336 7.03695 5.65002C8.59562 4.86669 10.2583 4.47502 12.025 4.47502C13.7916 4.47502 15.4583 4.85402 17.025 5.61202C18.5916 6.37069 19.9 7.46669 20.95 8.90002C21.05 9.05002 21.0833 9.18336 21.05 9.30002C21.0166 9.41669 20.95 9.51669 20.85 9.60002C20.75 9.68336 20.6333 9.72069 20.5 9.71202C20.3666 9.70402 20.25 9.63336 20.15 9.50002C19.2333 8.20002 18.0543 7.20402 16.613 6.51202C15.171 5.82069 13.6416 5.47502 12.025 5.47502C10.4083 5.47502 8.89162 5.82069 7.47495 6.51202C6.05829 7.20402 4.88329 8.20002 3.94995 9.50002C3.84995 9.65002 3.73329 9.73336 3.59995 9.75002C3.46662 9.76669 3.34995 9.73336 3.24995 9.65002ZM14.85 21.975C13.1166 21.5417 11.7 20.679 10.6 19.387C9.49995 18.0957 8.94995 16.5167 8.94995 14.65C8.94995 13.8167 9.24995 13.1167 9.84995 12.55C10.45 11.9834 11.175 11.7 12.025 11.7C12.875 11.7 13.6 11.9834 14.2 12.55C14.8 13.1167 15.1 13.8167 15.1 14.65C15.1 15.2 15.3083 15.6627 15.725 16.038C16.1416 16.4127 16.6333 16.6 17.2 16.6C17.7666 16.6 18.25 16.4127 18.65 16.038C19.05 15.6627 19.25 15.2 19.25 14.65C19.25 12.7167 18.5416 11.0917 17.125 9.77502C15.7083 8.45836 14.0166 7.80002 12.05 7.80002C10.0833 7.80002 8.39162 8.45836 6.97495 9.77502C5.55829 11.0917 4.84995 12.7084 4.84995 14.625C4.84995 15.025 4.88762 15.525 4.96295 16.125C5.03762 16.725 5.21662 17.425 5.49995 18.225C5.54995 18.375 5.54595 18.5084 5.48795 18.625C5.42929 18.7417 5.33329 18.825 5.19995 18.875C5.06662 18.925 4.93729 18.9207 4.81195 18.862C4.68729 18.804 4.59995 18.7084 4.54995 18.575C4.29995 17.925 4.12095 17.279 4.01295 16.637C3.90429 15.9957 3.84995 15.3334 3.84995 14.65C3.84995 12.4334 4.65429 10.575 6.26295 9.07502C7.87095 7.57502 9.79162 6.82502 12.025 6.82502C14.275 6.82502 16.2083 7.57502 17.825 9.07502C19.4416 10.575 20.25 12.4334 20.25 14.65C20.25 15.4834 19.9543 16.1794 19.363 16.738C18.771 17.296 18.05 17.575 17.2 17.575C16.35 17.575 15.621 17.296 15.013 16.738C14.4043 16.1794 14.1 15.4834 14.1 14.65C14.1 14.1 13.896 13.6374 13.488 13.262C13.0793 12.8874 12.5916 12.7 12.025 12.7C11.4583 12.7 10.9706 12.8874 10.562 13.262C10.154 13.6374 9.94995 14.1 9.94995 14.65C9.94995 16.2667 10.4293 17.6167 11.388 18.7C12.346 19.7834 13.5833 20.5417 15.1 20.975C15.25 21.025 15.35 21.1084 15.4 21.225C15.45 21.3417 15.4583 21.4667 15.425 21.6C15.3916 21.7167 15.325 21.8167 15.225 21.9C15.125 21.9834 15 22.0084 14.85 21.975ZM6.49995 4.42502C6.36662 4.50836 6.23329 4.52902 6.09995 4.48702C5.96662 4.44569 5.86662 4.35836 5.79995 4.22502C5.73329 4.09169 5.71662 3.97069 5.74995 3.86202C5.78329 3.75402 5.86662 3.65836 5.99995 3.57502C6.93329 3.07502 7.90829 2.69169 8.92495 2.42502C9.94162 2.15836 10.975 2.02502 12.025 2.02502C13.0916 2.02502 14.1333 2.15402 15.15 2.41202C16.1666 2.67069 17.15 3.04169 18.1 3.52502C18.25 3.60836 18.3376 3.70836 18.363 3.82502C18.3876 3.94169 18.375 4.05836 18.325 4.17502C18.275 4.29169 18.1916 4.38336 18.075 4.45002C17.9583 4.51669 17.8166 4.50836 17.65 4.42502C16.7666 3.97502 15.854 3.62902 14.912 3.38702C13.9706 3.14569 13.0083 3.02502 12.025 3.02502C11.0583 3.02502 10.1083 3.13736 9.17495 3.36202C8.24162 3.58736 7.34995 3.94169 6.49995 4.42502ZM9.44995 21.625C8.46662 20.5917 7.71262 19.5374 7.18795 18.462C6.66262 17.3874 6.39995 16.1167 6.39995 14.65C6.39995 13.1334 6.94995 11.854 8.04995 10.812C9.14995 9.77069 10.475 9.25002 12.025 9.25002C13.575 9.25002 14.9083 9.77069 16.025 10.812C17.1416 11.854 17.7 13.1334 17.7 14.65C17.7 14.8 17.654 14.9207 17.562 15.012C17.4706 15.104 17.35 15.15 17.2 15.15C17.0666 15.15 16.95 15.104 16.85 15.012C16.75 14.9207 16.7 14.8 16.7 14.65C16.7 13.4 16.2373 12.354 15.312 11.512C14.3873 10.6707 13.2916 10.25 12.025 10.25C10.7583 10.25 9.67062 10.6707 8.76195 11.512C7.85395 12.354 7.39995 13.4 7.39995 14.65C7.39995 16 7.63329 17.1457 8.09995 18.087C8.56662 19.029 9.24995 19.975 10.15 20.925C10.25 21.025 10.3 21.1417 10.3 21.275C10.3 21.4084 10.25 21.525 10.15 21.625C10.05 21.725 9.93329 21.775 9.79995 21.775C9.66662 21.775 9.54995 21.725 9.44995 21.625ZM17 19.925C15.5166 19.925 14.229 19.425 13.137 18.425C12.0456 17.425 11.5 16.1667 11.5 14.65C11.5 14.5167 11.5456 14.4 11.637 14.3C11.729 14.2 11.85 14.15 12 14.15C12.15 14.15 12.271 14.2 12.363 14.3C12.4543 14.4 12.5 14.5167 12.5 14.65C12.5 15.9 12.95 16.925 13.85 17.725C14.75 18.525 15.8 18.925 17 18.925C17.1 18.925 17.2416 18.9167 17.425 18.9C17.6083 18.8834 17.8 18.8584 18 18.825C18.15 18.7917 18.2793 18.8124 18.388 18.887C18.496 18.9624 18.5666 19.075 18.6 19.225C18.6333 19.3584 18.6083 19.475 18.525 19.575C18.4416 19.675 18.3333 19.7417 18.2 19.775C17.9 19.8584 17.6376 19.9044 17.413 19.913C17.1876 19.921 17.05 19.925 17 19.925Z" fill="#1C2129"/>
</svg>
